<svg height="2750" width="720" xmlns="http://www.w3.org/2000/svg">
<rect height="2750" fill="#555" width="720"></rect>
<text fill="#7f7" font-family="Courier New" font-size="12" xml:space="preserve">
<tspan x="10" y="26">20 megabytes installed</tspan>
<tspan x="10" y="42"></tspan>
<tspan x="10" y="58">node_modules</tspan>
<tspan x="10" y="74">└─┬ gittio@0.6.4 </tspan>
<tspan x="10" y="90">  ├── adm-zip@0.4.7 </tspan>
<tspan x="10" y="106">  ├─┬ appc-compat@1.0.3 </tspan>
<tspan x="10" y="122">  │ └─┬ deasync@0.1.9 </tspan>
<tspan x="10" y="138">  │   ├── bindings@1.2.1 </tspan>
<tspan x="10" y="154">  │   └── nan@2.6.2 </tspan>
<tspan x="10" y="170">  ├── async@0.2.10 </tspan>
<tspan x="10" y="186">  ├─┬ chalk@1.0.0 </tspan>
<tspan x="10" y="202">  │ ├── ansi-styles@2.2.1 </tspan>
<tspan x="10" y="218">  │ ├── escape-string-regexp@1.0.5 </tspan>
<tspan x="10" y="234">  │ ├─┬ has-ansi@1.0.3 </tspan>
<tspan x="10" y="250">  │ │ ├── ansi-regex@1.1.1 </tspan>
<tspan x="10" y="266">  │ │ └── get-stdin@4.0.1 </tspan>
<tspan x="10" y="282">  │ ├── strip-ansi@2.0.1 </tspan>
<tspan x="10" y="298">  │ └── supports-color@1.3.1 </tspan>
<tspan x="10" y="314">  ├── commander@2.1.0 </tspan>
<tspan x="10" y="330">  ├── fs-extended@0.2.1 </tspan>
<tspan x="10" y="346">  ├─┬ glob@4.5.3 </tspan>
<tspan x="10" y="362">  │ ├─┬ inflight@1.0.6 </tspan>
<tspan x="10" y="378">  │ │ └── wrappy@1.0.2 </tspan>
<tspan x="10" y="394">  │ ├── inherits@2.0.3 </tspan>
<tspan x="10" y="410">  │ ├─┬ minimatch@2.0.10 </tspan>
<tspan x="10" y="426">  │ │ └─┬ brace-expansion@1.1.7 </tspan>
<tspan x="10" y="442">  │ │   ├── balanced-match@0.4.2 </tspan>
<tspan x="10" y="458">  │ │   └── concat-map@0.0.1 </tspan>
<tspan x="10" y="474">  │ └── once@1.4.0 </tspan>
<tspan x="10" y="490">  ├─┬ rc@1.2.1 </tspan>
<tspan x="10" y="506">  │ ├── deep-extend@0.4.1 </tspan>
<tspan x="10" y="522">  │ ├── ini@1.3.4 </tspan>
<tspan x="10" y="538">  │ ├── minimist@1.2.0 </tspan>
<tspan x="10" y="554">  │ └── strip-json-comments@2.0.1 </tspan>
<tspan x="10" y="570">  ├─┬ request@2.81.0 </tspan>
<tspan x="10" y="586">  │ ├── aws-sign2@0.6.0 </tspan>
<tspan x="10" y="602">  │ ├── aws4@1.6.0 </tspan>
<tspan x="10" y="618">  │ ├── caseless@0.12.0 </tspan>
<tspan x="10" y="634">  │ ├─┬ combined-stream@1.0.5 </tspan>
<tspan x="10" y="650">  │ │ └── delayed-stream@1.0.0 </tspan>
<tspan x="10" y="666">  │ ├── extend@3.0.0 </tspan>
<tspan x="10" y="682">  │ ├── forever-agent@0.6.1 </tspan>
<tspan x="10" y="698">  │ ├─┬ form-data@2.1.4 </tspan>
<tspan x="10" y="714">  │ │ └── asynckit@0.4.0 </tspan>
<tspan x="10" y="730">  │ ├─┬ har-validator@4.2.1 </tspan>
<tspan x="10" y="746">  │ │ ├─┬ ajv@4.11.7 </tspan>
<tspan x="10" y="762">  │ │ │ ├── co@4.6.0 </tspan>
<tspan x="10" y="778">  │ │ │ └─┬ json-stable-stringify@1.0.1 </tspan>
<tspan x="10" y="794">  │ │ │   └── jsonify@0.0.0 </tspan>
<tspan x="10" y="810">  │ │ └── har-schema@1.0.5 </tspan>
<tspan x="10" y="826">  │ ├─┬ hawk@3.1.3 </tspan>
<tspan x="10" y="842">  │ │ ├── boom@2.10.1 </tspan>
<tspan x="10" y="858">  │ │ ├── cryptiles@2.0.5 </tspan>
<tspan x="10" y="874">  │ │ ├── hoek@2.16.3 </tspan>
<tspan x="10" y="890">  │ │ └── sntp@1.0.9 </tspan>
<tspan x="10" y="906">  │ ├─┬ http-signature@1.1.1 </tspan>
<tspan x="10" y="922">  │ │ ├── assert-plus@0.2.0 </tspan>
<tspan x="10" y="938">  │ │ ├─┬ jsprim@1.4.0 </tspan>
<tspan x="10" y="954">  │ │ │ ├── assert-plus@1.0.0 </tspan>
<tspan x="10" y="970">  │ │ │ ├── extsprintf@1.0.2 </tspan>
<tspan x="10" y="986">  │ │ │ ├── json-schema@0.2.3 </tspan>
<tspan x="10" y="1002">  │ │ │ └── verror@1.3.6 </tspan>
<tspan x="10" y="1018">  │ │ └─┬ sshpk@1.13.0 </tspan>
<tspan x="10" y="1034">  │ │   ├── asn1@0.2.3 </tspan>
<tspan x="10" y="1050">  │ │   ├── assert-plus@1.0.0 </tspan>
<tspan x="10" y="1066">  │ │   ├── bcrypt-pbkdf@1.0.1 </tspan>
<tspan x="10" y="1082">  │ │   ├─┬ dashdash@1.14.1 </tspan>
<tspan x="10" y="1098">  │ │   │ └── assert-plus@1.0.0 </tspan>
<tspan x="10" y="1114">  │ │   ├── ecc-jsbn@0.1.1 </tspan>
<tspan x="10" y="1130">  │ │   ├─┬ getpass@0.1.6 </tspan>
<tspan x="10" y="1146">  │ │   │ └── assert-plus@1.0.0 </tspan>
<tspan x="10" y="1162">  │ │   ├── jodid25519@1.0.2 </tspan>
<tspan x="10" y="1178">  │ │   ├── jsbn@0.1.1 </tspan>
<tspan x="10" y="1194">  │ │   └── tweetnacl@0.14.5 </tspan>
<tspan x="10" y="1210">  │ ├── is-typedarray@1.0.0 </tspan>
<tspan x="10" y="1226">  │ ├── isstream@0.1.2 </tspan>
<tspan x="10" y="1242">  │ ├── json-stringify-safe@5.0.1 </tspan>
<tspan x="10" y="1258">  │ ├─┬ mime-types@2.1.15 </tspan>
<tspan x="10" y="1274">  │ │ └── mime-db@1.27.0 </tspan>
<tspan x="10" y="1290">  │ ├── oauth-sign@0.8.2 </tspan>
<tspan x="10" y="1306">  │ ├── performance-now@0.2.0 </tspan>
<tspan x="10" y="1322">  │ ├── qs@6.4.0 </tspan>
<tspan x="10" y="1338">  │ ├── safe-buffer@5.0.1 </tspan>
<tspan x="10" y="1354">  │ ├── stringstream@0.0.5 </tspan>
<tspan x="10" y="1370">  │ ├─┬ tough-cookie@2.3.2 </tspan>
<tspan x="10" y="1386">  │ │ └── punycode@1.4.1 </tspan>
<tspan x="10" y="1402">  │ ├── tunnel-agent@0.6.0 </tspan>
<tspan x="10" y="1418">  │ └── uuid@3.0.1 </tspan>
<tspan x="10" y="1434">  ├── rimraf@2.2.8 </tspan>
<tspan x="10" y="1450">  ├── semver@4.3.6 </tspan>
<tspan x="10" y="1466">  ├─┬ timodules@0.1.3 </tspan>
<tspan x="10" y="1482">  │ ├── colors@0.6.2 </tspan>
<tspan x="10" y="1498">  │ ├─┬ term-list@0.2.1 </tspan>
<tspan x="10" y="1514">  │ │ ├── keypress@0.2.1 </tspan>
<tspan x="10" y="1530">  │ │ └── term-canvas@0.0.5 </tspan>
<tspan x="10" y="1546">  │ ├─┬ tiapp@0.0.3 </tspan>
<tspan x="10" y="1562">  │ │ └── xml2js@0.2.8 </tspan>
<tspan x="10" y="1578">  │ └─┬ xml2js@0.2.8 </tspan>
<tspan x="10" y="1594">  │   └── sax@0.5.8 </tspan>
<tspan x="10" y="1610">  ├── underscore@1.5.2 </tspan>
<tspan x="10" y="1626">  ├─┬ update-notifier@0.6.3 </tspan>
<tspan x="10" y="1642">  │ ├─┬ boxen@0.3.1 </tspan>
<tspan x="10" y="1658">  │ │ ├─┬ chalk@1.1.3 </tspan>
<tspan x="10" y="1674">  │ │ │ ├─┬ has-ansi@2.0.0 </tspan>
<tspan x="10" y="1690">  │ │ │ │ └── ansi-regex@2.1.1 </tspan>
<tspan x="10" y="1706">  │ │ │ ├── strip-ansi@3.0.1 </tspan>
<tspan x="10" y="1722">  │ │ │ └── supports-color@2.0.0 </tspan>
<tspan x="10" y="1738">  │ │ ├── filled-array@1.1.0 </tspan>
<tspan x="10" y="1754">  │ │ ├── object-assign@4.1.1 </tspan>
<tspan x="10" y="1770">  │ │ ├─┬ repeating@2.0.1 </tspan>
<tspan x="10" y="1786">  │ │ │ └─┬ is-finite@1.0.2 </tspan>
<tspan x="10" y="1802">  │ │ │   └── number-is-nan@1.0.1 </tspan>
<tspan x="10" y="1818">  │ │ ├─┬ string-width@1.0.2 </tspan>
<tspan x="10" y="1834">  │ │ │ ├── code-point-at@1.1.0 </tspan>
<tspan x="10" y="1850">  │ │ │ ├── is-fullwidth-code-point@1.0.0 </tspan>
<tspan x="10" y="1866">  │ │ │ └─┬ strip-ansi@3.0.1 </tspan>
<tspan x="10" y="1882">  │ │ │   └── ansi-regex@2.1.1 </tspan>
<tspan x="10" y="1898">  │ │ └── widest-line@1.0.0 </tspan>
<tspan x="10" y="1914">  │ ├─┬ configstore@2.1.0 </tspan>
<tspan x="10" y="1930">  │ │ ├─┬ dot-prop@3.0.0 </tspan>
<tspan x="10" y="1946">  │ │ │ └── is-obj@1.0.1 </tspan>
<tspan x="10" y="1962">  │ │ ├── graceful-fs@4.1.11 </tspan>
<tspan x="10" y="1978">  │ │ ├─┬ mkdirp@0.5.1 </tspan>
<tspan x="10" y="1994">  │ │ │ └── minimist@0.0.8 </tspan>
<tspan x="10" y="2010">  │ │ ├── os-tmpdir@1.0.2 </tspan>
<tspan x="10" y="2026">  │ │ ├─┬ osenv@0.1.4 </tspan>
<tspan x="10" y="2042">  │ │ │ └── os-homedir@1.0.2 </tspan>
<tspan x="10" y="2058">  │ │ ├── uuid@2.0.3 </tspan>
<tspan x="10" y="2074">  │ │ ├─┬ write-file-atomic@1.3.3 </tspan>
<tspan x="10" y="2090">  │ │ │ ├── imurmurhash@0.1.4 </tspan>
<tspan x="10" y="2106">  │ │ │ └── slide@1.1.6 </tspan>
<tspan x="10" y="2122">  │ │ └── xdg-basedir@2.0.0 </tspan>
<tspan x="10" y="2138">  │ ├── is-npm@1.0.0 </tspan>
<tspan x="10" y="2154">  │ ├─┬ latest-version@2.0.0 </tspan>
<tspan x="10" y="2170">  │ │ └─┬ package-json@2.4.0 </tspan>
<tspan x="10" y="2186">  │ │   ├─┬ got@5.7.1 </tspan>
<tspan x="10" y="2202">  │ │   │ ├─┬ create-error-class@3.0.2 </tspan>
<tspan x="10" y="2218">  │ │   │ │ └── capture-stack-trace@1.0.0 </tspan>
<tspan x="10" y="2234">  │ │   │ ├── duplexer2@0.1.4 </tspan>
<tspan x="10" y="2250">  │ │   │ ├── is-redirect@1.0.0 </tspan>
<tspan x="10" y="2266">  │ │   │ ├── is-retry-allowed@1.1.0 </tspan>
<tspan x="10" y="2282">  │ │   │ ├── is-stream@1.1.0 </tspan>
<tspan x="10" y="2298">  │ │   │ ├── lowercase-keys@1.0.0 </tspan>
<tspan x="10" y="2314">  │ │   │ ├── node-status-codes@1.0.0 </tspan>
<tspan x="10" y="2330">  │ │   │ ├─┬ parse-json@2.2.0 </tspan>
<tspan x="10" y="2346">  │ │   │ │ └─┬ error-ex@1.3.1 </tspan>
<tspan x="10" y="2362">  │ │   │ │   └── is-arrayish@0.2.1 </tspan>
<tspan x="10" y="2378">  │ │   │ ├─┬ pinkie-promise@2.0.1 </tspan>
<tspan x="10" y="2394">  │ │   │ │ └── pinkie@2.0.4 </tspan>
<tspan x="10" y="2410">  │ │   │ ├── read-all-stream@3.1.0 </tspan>
<tspan x="10" y="2426">  │ │   │ ├─┬ readable-stream@2.2.9 </tspan>
<tspan x="10" y="2442">  │ │   │ │ ├── buffer-shims@1.0.0 </tspan>
<tspan x="10" y="2458">  │ │   │ │ ├── core-util-is@1.0.2 </tspan>
<tspan x="10" y="2474">  │ │   │ │ ├── isarray@1.0.0 </tspan>
<tspan x="10" y="2490">  │ │   │ │ ├── process-nextick-args@1.0.7 </tspan>
<tspan x="10" y="2506">  │ │   │ │ ├── string_decoder@1.0.0 </tspan>
<tspan x="10" y="2522">  │ │   │ │ └── util-deprecate@1.0.2 </tspan>
<tspan x="10" y="2538">  │ │   │ ├── timed-out@3.1.3 </tspan>
<tspan x="10" y="2554">  │ │   │ ├── unzip-response@1.0.2 </tspan>
<tspan x="10" y="2570">  │ │   │ └─┬ url-parse-lax@1.0.0 </tspan>
<tspan x="10" y="2586">  │ │   │   └── prepend-http@1.0.4 </tspan>
<tspan x="10" y="2602">  │ │   ├── registry-auth-token@3.3.0 </tspan>
<tspan x="10" y="2618">  │ │   ├── registry-url@3.1.0 </tspan>
<tspan x="10" y="2634">  │ │   └── semver@5.3.0 </tspan>
<tspan x="10" y="2650">  │ └─┬ semver-diff@2.1.0 </tspan>
<tspan x="10" y="2666">  │   └── semver@5.3.0 </tspan>
<tspan x="10" y="2682">  └─┬ xml2js@0.4.17 </tspan>
<tspan x="10" y="2698">    ├── sax@1.2.2 </tspan>
<tspan x="10" y="2714">    └─┬ xmlbuilder@4.2.1 </tspan>
<tspan x="10" y="2730">      └── lodash@4.17.4</tspan>
</text>
</svg>
